<?xml version="1.0" standalone="no"?>
<!DOCTYPE svg PUBLIC "-//W3C//DTD SVG 20010904//EN"
 "http://www.w3.org/TR/2001/REC-SVG-20010904/DTD/svg10.dtd">
<svg version="1.0" xmlns="http://www.w3.org/2000/svg"
 width="128.000000pt" height="128.000000pt" viewBox="0 0 128.000000 128.000000"
 preserveAspectRatio="xMidYMid meet">
<metadata>
Created by potrace 1.11, written by Peter Selinger 2001-2013
</metadata>
<g transform="translate(0.000000,128.000000) scale(0.100000,-0.100000)"
fill="#000000" stroke="none">
<path d="M511 1167 c-7 -7 -11 -82 -11 -219 l0 -208 -68 0 c-75 0 -92 -9 -92
-52 0 -27 -2 -28 -48 -28 -26 0 -53 -5 -60 -12 -8 -8 -12 -67 -12 -198 l0
-187 90 -91 91 -92 239 0 239 0 90 91 91 91 0 187 c0 132 -4 191 -12 199 -7 7
-34 12 -60 12 -46 0 -48 1 -48 28 0 43 -17 52 -92 52 l-68 0 0 209 c0 167 -3
211 -14 220 -18 15 -240 13 -255 -2z"/>
</g>
</svg>
